<?xml version="1.0" encoding="utf-8"?>
<!-- Generator: Adobe Illustrator 19.0.0, SVG Export Plug-In . SVG Version: 6.00 Build 0)  -->
<svg version="1.1" id="Layer_1" xmlns="http://www.w3.org/2000/svg" xmlns:xlink="http://www.w3.org/1999/xlink" x="0px" y="0px"
	 width="1400px" height="980px" viewBox="0 0 1400 980" enable-background="new 0 0 1400 980" xml:space="preserve">
<g id="XMLID_1_">
	<g id="XMLID_479_">
		<polygon id="XMLID_515_" points="700,490 700,490 700,490 		"/>
		<polygon id="XMLID_514_" points="700,490 700,490 700,490 		"/>
		<polygon id="XMLID_513_" points="700,490 700,490 700,490 		"/>
		<polygon id="XMLID_512_" points="700,490 700,490 700,490 		"/>
		<polygon id="XMLID_511_" points="700,490 700,490 700,490 		"/>
		<polygon id="XMLID_510_" points="700,490 700,490 700,490 		"/>
		<rect id="XMLID_509_" x="700" y="490" width="0" height="0"/>
		<polygon id="XMLID_508_" points="700,490 700,490 700,490 		"/>
		<polygon id="XMLID_507_" points="700,490 700,490 700,490 		"/>
		<polygon id="XMLID_506_" points="700,490 700,490 700,490 		"/>
		<polygon id="XMLID_505_" points="700,490 700,490 700,490 		"/>
		<polygon id="XMLID_504_" points="700,490 700,490 700,490 		"/>
		<polygon id="XMLID_503_" points="700,490 700,490 700,490 		"/>
		<polygon id="XMLID_502_" points="700,490 700,490 700,490 		"/>
		<rect id="XMLID_501_" x="700" y="490" width="0" height="0"/>
		<polygon id="XMLID_500_" points="700,490 700,490 700,490 		"/>
		<rect id="XMLID_499_" x="700" y="490" width="0" height="0"/>
		<polygon id="XMLID_498_" points="700,490 700,490 700,490 		"/>
		<rect id="XMLID_497_" x="700" y="490" width="0" height="0"/>
		<rect id="XMLID_496_" x="700" y="490" width="0" height="0"/>
		<rect id="XMLID_495_" x="700" y="490" width="0" height="0"/>
		<rect id="XMLID_494_" x="700" y="490" width="0" height="0"/>
		<polygon id="XMLID_493_" points="700,490 700,490 700,490 		"/>
		<rect id="XMLID_492_" x="700" y="490" width="0" height="0"/>
		<path id="XMLID_491_" d="M700,490c8.8-41.7,18-84.4-1.9-122.5c-18-37.9-65.2-71.3-124.7-90.6c-62.2-19.4-136.7-24.7-232.4-0.7
			C246,301.7,129.9,356.4,0,490c0,58.5,0,117.1,0,175.6c97-150.1,216-239,313.2-286.3c99.2-47.7,176.6-53.8,236.7-48.8
			c59.6,6.6,100.1,29.6,121.9,58.9C694.3,418.8,698,454.5,700,490L700,490z"/>
		<path id="XMLID_490_" d="M700,490c-57,1.8-118-2.3-190.1,38.5c-34.9,21.2-71.6,55.2-96.6,121.2c-24.3,66.6-36.8,165.2-6.7,330.3
			c54.3,0,108.5,0,162.8,0c-59.9-129.1-77.9-211.8-79-272.1c-0.5-59.9,16-97.4,38-125.2C573.6,528.2,638.9,510.7,700,490L700,490z"
			/>
		<path id="XMLID_489_" d="M700,490L700,490c-16.9-27.8-36.1-54.2-71.1-71.9c-34.6-17.3-84.9-25.8-156.5-7.2
			c-69.9,17.8-160.6,66.7-247.8,161.4C136.7,663.1,60.7,805.9,0,895.3c0,28.2,0,56.5,0,84.7c70,0,140,0,210,0
			c21.1-149.1,61.7-274.1,113.3-356.2c50.9-83.9,112.8-124.8,162.4-145.6c52.3-21,93.8-21.6,127.5-16.5
			C647.2,467.2,673.5,478.5,700,490L700,490z"/>
		<path id="XMLID_488_" d="M700,490c-18.7,28.6-37.3,57.3-44.8,87.3c-7.7,29.9-4.3,61.2,13.6,92.6
			c34.1,62.9,127.8,126.1,221.4,166.8c95.3,41.7,180.9,60.2,257.1,65c39.1,2.9,77.6,2.6,119.7,2.6c41.8,0,87.2,0.3,133,4.8
			c0-77.5,0-155,0-232.5c-138.9,82.6-235.6,112.5-322.8,121.5C990.9,806,914,793,837.5,761.4c-73.5-29.9-135-76.7-155.4-124.7
			C659.1,588.2,677.1,538.4,700,490z"/>
		<path id="XMLID_487_" d="M983.7,980c68.8,0,137.5,0,206.3,0c-51.4-8.9-109.1-21.1-181.1-47.3c-70.7-25.8-155.6-65.5-232.3-120.2
			c-74.9-51.9-132-115.4-140.8-170.8c-12-56.5,24.5-104.8,64.2-151.7c-36.6,34.8-72.7,70-83.4,112c-11.7,41.6,1.9,90.1,40.3,140.7
			C732.6,845,897,947.5,983.7,980z"/>
		<path id="XMLID_486_" d="M700,980c41,0,82,0,122.9,0c-57.8-49.1-114.1-104-155.9-156c-42.2-52.2-69.8-101.4-79-143.9
			c-9.6-42.7-0.7-78.6,21.4-109c21.7-30.6,56.7-55.6,90.6-81.1C568.7,561.5,437.5,632.9,700,980z"/>
		<path id="XMLID_485_" d="M1400,84.7c0-28.2,0-56.5,0-84.7c-70,0-140,0-210,0c-21.1,149.1-61.7,274.1-113.3,356.2
			c-50.9,83.9-112.8,124.8-162.4,145.6c-52.3,21-93.8,21.6-127.5,16.5c-34-5.5-60.3-16.8-86.8-28.3c16.9,27.8,36.1,54.2,71.1,71.9
			c34.6,17.3,84.9,25.8,156.5,7.2c69.9-17.8,160.6-66.7,247.8-161.4C1263.3,316.9,1339.3,174.1,1400,84.7z"/>
		<path id="XMLID_484_" d="M993.4,0c-54.3,0-108.5,0-162.8,0c59.9,129.1,77.9,211.8,79,272.1c0.5,59.9-16,97.4-38,125.2
			c-45.2,54.5-110.6,72-171.7,92.7c57-1.8,118,2.3,190.1-38.5c34.9-21.2,71.6-55.2,96.6-121.2C1011,263.7,1023.5,165.1,993.4,0z"/>
		<path id="XMLID_483_" d="M700,490c-8.8,41.7-18,84.4,1.9,122.5c18,37.9,65.2,71.3,124.7,90.6c62.2,19.4,136.7,24.7,232.4,0.7
			c95-25.4,211.2-80.2,341-213.8c0-58.5,0-117.1,0-175.6c-97,150.1-216,239-313.2,286.3c-99.2,47.7-176.6,53.8-236.7,48.8
			c-59.6-6.6-100.1-29.6-121.9-58.9C705.7,561.2,702,525.5,700,490L700,490z"/>
		<path id="XMLID_482_" d="M700,490c36.6-34.8,72.7-70,83.4-112c11.7-41.6-2-90.1-40.3-140.7C667.4,135,503,32.5,416.3,0
			C347.5,0,278.8,0,210,0c51.4,8.9,109.1,21.1,181.1,47.3c70.7,25.8,155.6,65.5,232.3,120.2c74.9,51.9,132,115.4,140.8,170.8
			C776.2,394.8,739.8,443.2,700,490L700,490z"/>
		<path id="XMLID_481_" d="M700,490C700,490,700,490,700,490c18.7-28.6,37.3-57.3,44.8-87.3c7.7-29.9,4.3-61.2-13.6-92.6
			c-34.1-62.9-127.8-126.1-221.4-166.8c-95.3-41.7-180.9-60.2-257.1-65c-39.1-2.9-77.6-2.6-119.7-2.6c-41.8,0-87.2-0.3-133-4.8
			c0,77.5,0,155,0,232.5c138.9-82.6,235.6-112.5,322.8-121.5c86.3-7.8,163.2,5.2,239.6,36.7c73.5,29.9,135,76.7,155.4,124.7
			C740.9,391.8,722.9,441.6,700,490L700,490z"/>
		<path id="XMLID_480_" d="M700,490c131.2-71.5,262.5-142.9,0-490c-41,0-82,0-122.9,0c57.8,49.1,114.1,104,155.9,156
			c42.2,52.2,69.8,101.4,79,143.9c9.6,42.7,0.7,78.6-21.4,109C768.9,439.4,733.9,464.4,700,490L700,490z"/>
	</g>
	<g id="XMLID_52_">
		<path id="XMLID_65_" fill="#FFFFFF" d="M1400,980c0-23.6,0-47.2,0-70.8c-45.8-4.5-91.2-4.8-133-4.8c-42.1,0-80.6,0.3-119.7-2.6
			c-76.2-4.8-161.8-23.3-257.1-65C796.5,796.1,702.9,732.9,668.8,670c-17.8-31.5-21.3-62.7-13.6-92.6c7.4-30,26-58.7,44.8-87.3
			c-39.8,46.8-76.2,95.2-64.2,151.7c8.8,55.4,66,118.9,140.8,170.8c76.7,54.7,161.6,94.5,232.3,120.2c72,26.2,129.7,38.4,181.1,47.3
			C1260,980,1330,980,1400,980z"/>
		<path id="XMLID_64_" fill="#FFFFFF" d="M983.7,980C897,947.5,732.6,845,657,742.7c-38.4-50.6-52.1-99.1-40.3-140.7
			c10.7-42.1,46.8-77.2,83.4-112c-33.9,25.6-68.9,50.6-90.6,81.1c-22.1,30.4-30.9,66.3-21.4,109c9.2,42.5,36.9,91.7,79,143.9
			c41.8,52,98.1,106.9,155.9,156C876.5,980,930.1,980,983.7,980z"/>
		<path id="XMLID_63_" fill="#FFFFFF" d="M700,490c-61.1,20.7-126.4,38.2-171.6,92.7c-22.1,27.8-38.6,65.3-38.1,125.2
			c1.1,60.3,19.1,143,79,272.1c43.6,0,87.1,0,130.7,0C437.5,632.9,568.8,561.5,700,490L700,490z"/>
		<path id="XMLID_62_" fill="#FFFFFF" d="M210,980c65.5,0,131,0,196.6,0c-30.1-165.1-17.5-263.7,6.7-330.3
			c25-66,61.7-99.9,96.6-121.2C582,487.7,643,491.8,700,490l0,0c-26.5-11.5-52.8-22.8-86.8-28.3c-33.8-5.1-75.2-4.6-127.5,16.5
			c-49.6,20.8-111.5,61.8-162.4,145.6C271.7,705.9,231.1,830.9,210,980z"/>
		<path id="XMLID_61_" fill="#FFFFFF" d="M0,895.3c60.7-89.3,136.7-232.1,224.6-323c87.2-94.7,177.9-143.5,247.7-161.3
			c71.6-18.6,121.9-10.1,156.6,7.1c35,17.7,54.2,44.1,71.1,71.9c-2-35.5-5.8-71.2-28.2-100.6c-21.8-29.2-62.3-52.3-121.9-58.9
			c-60.1-5-137.5,1.1-236.7,48.8C216,426.6,97,515.5,0,665.6C0,742.2,0,818.7,0,895.3z"/>
		<path id="XMLID_60_" fill="#FFFFFF" d="M1400,490c-129.9,133.6-246,188.3-341,213.8c-95.7,24-170.2,18.7-232.4-0.7
			c-59.5-19.3-106.6-52.6-124.6-90.6C682,574.4,691.2,531.7,700,490c-22.9,48.4-40.9,98.2-17.9,146.8c20.4,48,81.9,94.7,155.4,124.7
			C914,793,990.9,806,1077.2,798.2c87.3-9,183.9-38.9,322.8-121.5C1400,614.4,1400,552.2,1400,490z"/>
		<path id="XMLID_59_" fill="#FFFFFF" d="M0,0c0,23.6,0,47.2,0,70.8c45.8,4.5,91.2,4.8,133,4.8c42.1,0,80.6-0.3,119.7,2.6
			c76.2,4.8,161.8,23.3,257.1,65c93.6,40.7,187.3,103.9,221.4,166.8c17.8,31.5,21.3,62.7,13.6,92.6c-7.4,30-26,58.7-44.8,87.3
			c39.8-46.8,76.2-95.2,64.2-151.7c-8.8-55.4-66-118.9-140.8-170.8c-76.7-54.7-161.6-94.5-232.3-120.2C319.1,21.1,261.4,8.9,210,0
			C140,0,70,0,0,0z"/>
		<path id="XMLID_58_" fill="#FFFFFF" d="M993.4,0c30.1,165.1,17.5,263.7-6.7,330.3c-25,66-61.7,99.9-96.6,121.2
			C818,492.3,757,488.2,700,490c26.5,11.5,52.8,22.8,86.8,28.3c33.8,5.1,75.2,4.6,127.5-16.5c49.6-20.8,111.5-61.8,162.4-145.6
			c51.5-82.1,92.1-207.1,113.3-356.2C1124.5,0,1059,0,993.4,0z"/>
		<path id="XMLID_57_" fill="#FFFFFF" d="M700,0c262.5,347.1,131.2,418.5,0,490c61.1-20.7,126.4-38.2,171.6-92.7
			c22.1-27.8,38.6-65.3,38.1-125.2c-1.1-60.3-19.1-143-79-272.1C787.1,0,743.6,0,700,0z"/>
		<path id="XMLID_56_" fill="#FFFFFF" d="M0,490c129.9-133.6,246-188.3,341-213.8c95.7-24,170.2-18.7,232.4,0.7
			c59.5,19.3,106.6,52.6,124.6,90.6c19.9,38.1,10.7,80.8,1.9,122.5c22.9-48.4,40.9-98.2,17.9-146.8c-20.4-48-81.9-94.7-155.4-124.7
			C486,187,409.1,174,322.8,181.8c-87.3,9-183.9,38.9-322.8,121.5C0,365.6,0,427.8,0,490z"/>
		<path id="XMLID_55_" fill="#FFFFFF" d="M700,490c2,35.5,5.7,71.2,28.2,100.6c21.8,29.2,62.3,52.3,121.9,58.9
			c60.1,5,137.5-1.1,236.7-48.8C1184,553.4,1303,464.5,1400,314.4c0-76.5,0-153.1,0-229.6c-60.7,89.3-136.7,232.1-224.6,323
			c-87.2,94.7-177.9,143.5-247.7,161.3c-71.6,18.6-121.9,10.1-156.6-7.1C736.1,544.2,716.9,517.8,700,490L700,490z"/>
		<path id="XMLID_53_" fill="#FFFFFF" d="M416.3,0C503,32.5,667.4,135,743,237.3c38.4,50.6,52.1,99.1,40.3,140.7
			c-10.7,42.1-46.8,77.2-83.4,112c33.9-25.6,68.9-50.6,90.6-81.1c22.1-30.4,30.9-66.3,21.4-109c-9.2-42.5-36.9-91.7-79-143.9
			C691.1,104,634.8,49.1,577.1,0C523.5,0,469.9,0,416.3,0z"/>
	</g>
</g>
</svg>
